<?xml version="1.0" encoding="UTF-8"?><svg id="Layer_2" xmlns="http://www.w3.org/2000/svg" xmlns:xlink="http://www.w3.org/1999/xlink" viewBox="0 0 224.36 355.35"><defs><style>.cls-1{fill:url(#linear-gradient-2);}.cls-2{fill:#fff;}.cls-3{clip-path:url(#clippath-2);}.cls-4{clip-path:url(#clippath-1);}.cls-5{fill:#006fb9;}.cls-6{clip-path:url(#clippath);}.cls-7{fill:none;}.cls-8{clip-path:url(#clippath-3);}.cls-9{fill:url(#linear-gradient);}</style><clipPath id="clippath"><rect class="cls-7" width="224.36" height="355.35"/></clipPath><clipPath id="clippath-1"><path class="cls-7" d="m223.34,7.48c-5.48,46.61-29.12,235.97-189.33,347.86h190.35V3.67c-.33,1.23-.67,2.5-1.02,3.82"/></clipPath><linearGradient id="linear-gradient" x1="612.33" y1="575.71" x2="613.33" y2="575.71" gradientTransform="translate(256528.57 273139.8) rotate(-90) scale(445.36 -445.36)" gradientUnits="userSpaceOnUse"><stop offset="0" stop-color="#00a9e3"/><stop offset=".18" stop-color="#00a9e3"/><stop offset=".32" stop-color="#04aae3"/><stop offset=".46" stop-color="#11aee5"/><stop offset=".61" stop-color="#26b5e7"/><stop offset=".76" stop-color="#43bfeb"/><stop offset=".91" stop-color="#69cbf0"/><stop offset="1" stop-color="#83d4f4"/></linearGradient><clipPath id="clippath-2"><path class="cls-7" d="m223.35,0c-2.2,27.02-4.08,211.13-111.09,355.35h112.1V0h-1.01Z"/></clipPath><linearGradient id="linear-gradient-2" x1="612.31" y1="575.74" x2="613.31" y2="575.74" gradientTransform="translate(265613.06 282756.51) rotate(-90) scale(461.05 -461.05)" gradientUnits="userSpaceOnUse"><stop offset="0" stop-color="#0074bd"/><stop offset=".22" stop-color="#0078bf"/><stop offset=".45" stop-color="#0084c8"/><stop offset=".69" stop-color="#0099d6"/><stop offset=".93" stop-color="#00b6e9"/><stop offset="1" stop-color="#00c1f1"/></linearGradient><clipPath id="clippath-3"><rect class="cls-7" width="224.36" height="355.35"/></clipPath></defs><g id="Layer_1-2"><g class="cls-6"><path class="cls-2" d="m224.38-1.75s-25.72,298.99-301.75,404.63c109.27-5.83,199.39-28.31,199.39-28.31l90.33-214.16"/></g><g class="cls-4"><path class="cls-9" d="m223.34,7.48c-5.48,46.61-29.12,235.97-189.33,347.86h190.35V3.67c-.33,1.23-.67,2.5-1.02,3.82"/></g><g class="cls-3"><path class="cls-1" d="m223.35,0c-2.2,27.02-4.08,211.13-111.09,355.35h112.1V0"/></g><g class="cls-8"><path class="cls-5" d="m175.2,282.68c6.22-8.13,23.53-65.71,23.94-66.29.02.01-2.83,20.65-.77,25.63,5.59-2.57,23.22-39.39,23.22-112.1.35,56.33,12.61,210.65-8.07,233.73l-118.25,47.73c36.14-38.18,86.95-188.79,90.29-198.23.18,2.21-10.35,51.97-10.35,69.54"/><path class="cls-2" d="m222.24,27.49s-5.1,255.6-175.92,401.01c-27.85,22.54,148.43-85.33,175.92-401.01"/><path class="cls-2" d="m186.22,171.32s-54.18,153.91-144.1,208.09c86.38-56.15,144.1-208.09,144.1-208.09"/></g></g></svg>