<?xml version="1.0" encoding="UTF-8"?><svg id="Layer_2" xmlns="http://www.w3.org/2000/svg" xmlns:xlink="http://www.w3.org/1999/xlink" viewBox="0 0 224.36 355.35"><defs><style>.cls-1{fill:url(#linear-gradient-2);}.cls-2{fill:#fff;}.cls-3{clip-path:url(#clippath-2);}.cls-4{clip-path:url(#clippath-1);}.cls-5{fill:#006fb9;}.cls-6{clip-path:url(#clippath);}.cls-7{fill:none;}.cls-8{clip-path:url(#clippath-3);}.cls-9{fill:url(#linear-gradient);}</style><clipPath id="clippath"><rect class="cls-7" width="224.36" height="355.35"/></clipPath><clipPath id="clippath-1"><path class="cls-7" d="m1.02,347.86C6.5,301.25,30.14,111.89,190.35,0H0v351.68c.33-1.23.67-2.5,1.02-3.82"/></clipPath><linearGradient id="linear-gradient" x1="612.33" y1="575.71" x2="613.33" y2="575.71" gradientTransform="translate(-256304.21 -272784.46) rotate(90) scale(445.36 -445.36)" gradientUnits="userSpaceOnUse"><stop offset="0" stop-color="#00a9e3"/><stop offset=".18" stop-color="#00a9e3"/><stop offset=".32" stop-color="#04aae3"/><stop offset=".46" stop-color="#11aee5"/><stop offset=".61" stop-color="#26b5e7"/><stop offset=".76" stop-color="#43bfeb"/><stop offset=".91" stop-color="#69cbf0"/><stop offset="1" stop-color="#83d4f4"/></linearGradient><clipPath id="clippath-2"><path class="cls-7" d="m1.01,355.35C3.22,328.33,5.1,144.21,112.1,0H0v355.35h1.01Z"/></clipPath><linearGradient id="linear-gradient-2" x1="612.31" y1="575.74" x2="613.31" y2="575.74" gradientTransform="translate(-265388.71 -282401.17) rotate(90) scale(461.05 -461.05)" gradientUnits="userSpaceOnUse"><stop offset="0" stop-color="#0074bd"/><stop offset=".22" stop-color="#0078bf"/><stop offset=".45" stop-color="#0084c8"/><stop offset=".69" stop-color="#0099d6"/><stop offset=".93" stop-color="#00b6e9"/><stop offset="1" stop-color="#00c1f1"/></linearGradient><clipPath id="clippath-3"><rect class="cls-7" width="224.36" height="355.35"/></clipPath></defs><g id="Layer_1-2"><g class="cls-6"><path class="cls-2" d="m-.02,357.09S25.7,58.1,301.73-47.54c-109.27,5.83-199.39,28.31-199.39,28.31L12.01,194.93"/></g><g class="cls-4"><path class="cls-9" d="m1.02,347.86C6.5,301.25,30.14,111.89,190.35,0H0v351.68c.33-1.23.67-2.5,1.02-3.82"/></g><g class="cls-3"><path class="cls-1" d="m1.01,355.35C3.22,328.33,5.1,144.21,112.1,0H0v355.35"/></g><g class="cls-8"><path class="cls-5" d="m49.16,72.67c-6.22,8.13-23.53,65.71-23.94,66.29-.02-.01,2.83-20.65.77-25.63-5.59,2.57-23.22,39.39-23.22,112.1C2.43,169.11-9.84,14.79,10.85-8.29l118.25-47.73C92.96-17.84,42.15,132.77,38.81,142.21c-.18-2.21,10.35-51.97,10.35-69.54"/><path class="cls-2" d="m2.12,327.85S7.22,72.25,178.04-73.15C205.89-95.7,29.61,12.17,2.12,327.85"/><path class="cls-2" d="m38.14,184.03S92.32,30.12,182.24-24.06C95.86,32.08,38.14,184.03,38.14,184.03"/></g></g></svg>